<svg width="798" height="877" viewBox="0 0 798 877" fill="none" xmlns="http://www.w3.org/2000/svg">
<path d="M390.381 152.105C406.784 158.081 424.728 158.466 442.255 158.842C444.399 158.888 446.537 158.934 448.665 158.99C468.322 159.507 487.19 160.875 503.33 170.614C519.756 180.526 536.663 193.658 549.592 209.063C562.525 224.473 571.396 242.057 571.963 260.907C572.317 272.664 567.03 284.175 559.081 295.576C552.5 305.015 544.213 314.22 536.03 323.309C534.326 325.202 532.627 327.089 530.948 328.972C521.273 339.831 512.261 350.588 507.493 361.2C505.097 366.531 503.74 371.893 503.936 377.266C504.134 382.658 505.895 387.969 509.594 393.181C520.628 408.729 537.186 416.962 556.136 421.653C574.231 426.133 594.692 427.426 614.879 428.701C615.801 428.759 616.722 428.818 617.642 428.876C638.796 430.22 659.512 431.703 677.147 436.88C694.738 442.043 709.089 450.832 717.703 466.681C720.588 471.988 721.226 476.533 720.289 480.549C719.345 484.595 716.752 488.323 712.757 491.876C704.715 499.027 691.476 505.058 676.578 511.264C674.053 512.316 671.484 513.371 668.89 514.437C656.284 519.616 643.093 525.036 631.627 531.401C617.824 539.064 606.204 548.261 601.105 560.397C595.835 572.94 596.909 587.451 600.568 602.359C603.574 614.607 608.379 627.316 613.034 639.624C614.045 642.299 615.049 644.954 616.026 647.581C621.534 662.395 626.16 676.284 626.662 688.075C626.912 693.942 626.134 699.205 623.991 703.766C621.857 708.309 618.326 712.252 612.904 715.424C600.02 722.963 586.475 721.795 572.272 715.911C558.013 710.004 543.325 699.437 528.338 688.491C527.789 688.09 527.24 687.689 526.691 687.287C512.306 676.776 497.668 666.079 483.134 659.322C468.016 652.294 452.764 649.41 437.84 655.595C423.291 661.624 414.362 673.031 408.348 687.074C402.354 701.072 399.198 717.829 396.253 734.735C396.016 736.098 395.78 737.462 395.544 738.825C392.841 754.45 390.141 770.054 385.424 783.891C380.302 798.914 372.86 811.665 360.637 819.983C341.839 832.775 317.203 835.265 292.563 830.944C267.936 826.626 243.503 815.534 225.301 801.441C205.729 786.286 196.907 763.203 189.544 738.261C188.284 733.992 187.066 729.667 185.843 725.322C179.962 704.431 173.95 683.076 162.441 665.316C157.343 657.45 149.861 650.93 141.657 645.03C136.45 641.285 130.858 637.727 125.359 634.23C122.233 632.241 119.136 630.271 116.158 628.297C99.4629 617.231 86.3191 605.915 87.1836 588.679C87.7788 576.811 93.7657 566.496 102.507 556.865C110.539 548.016 120.765 539.882 131.006 531.735C131.929 531.002 132.851 530.268 133.772 529.534C144.857 520.695 155.742 511.755 163.243 501.932C170.782 492.062 175.01 481.16 172.554 468.463C169.893 454.701 161.17 444.965 149.627 437.31C138.121 429.679 123.649 424.009 109.26 418.433L108.346 418.079C94.1928 412.595 80.1697 407.162 68.7748 399.986C57.1628 392.674 48.4613 383.662 45.1519 371.14C40.474 353.441 51.1172 337.593 67.9036 323.891C84.625 310.243 106.942 299.154 124.386 291.036C132.686 287.174 142.433 286.609 152.882 287.552C160.994 288.284 169.39 289.907 177.749 291.522C180.172 291.991 182.592 292.458 185.001 292.904C195.641 294.87 206.075 296.399 215.236 295.393C224.473 294.379 232.522 290.774 238.201 282.436C247.953 268.117 251.276 251.075 251.671 233.04C252.018 217.186 250.099 200.421 248.212 183.927C247.955 181.68 247.698 179.437 247.448 177.203C245.354 158.503 243.707 140.364 245.754 124.19C247.795 108.063 253.495 94.0128 266.014 83.3676C270.411 79.6288 274.853 77.6514 279.341 77.016C283.841 76.379 288.489 77.0764 293.308 78.8471C303.001 82.4083 313.159 90.2207 323.761 99.6928C328.531 103.954 333.356 108.519 338.246 113.145C338.774 113.645 339.304 114.145 339.834 114.646C345.26 119.777 350.762 124.946 356.314 129.783C367.395 139.438 378.796 147.884 390.381 152.105Z" stroke="#DC3635" stroke-width="3"/>
<path d="M423.138 192.99C439.374 198.906 457.143 199.289 474.693 199.667C476.835 199.713 478.974 199.759 481.106 199.815C500.754 200.331 519.871 201.692 536.261 211.583C552.752 221.534 569.754 234.733 582.772 250.245C595.792 265.758 604.8 283.551 605.377 302.702C605.74 314.777 600.31 326.506 592.316 337.973C585.696 347.467 577.357 356.729 569.173 365.818C567.473 367.707 565.779 369.588 564.109 371.462C554.422 382.333 545.515 392.983 540.819 403.435C538.467 408.669 537.16 413.876 537.35 419.054C537.54 424.238 539.23 429.363 542.824 434.427C553.666 449.705 569.965 457.846 588.79 462.507C606.796 466.965 627.174 468.253 647.391 469.53C648.301 469.587 649.211 469.645 650.12 469.703C671.252 471.045 692.082 472.532 709.843 477.745C727.589 482.954 742.213 491.867 750.996 508.028C753.97 513.499 754.682 518.295 753.677 522.601C752.67 526.917 749.922 530.814 745.836 534.447C737.646 541.73 724.244 547.819 709.376 554.012C706.841 555.068 704.265 556.127 701.666 557.195C689.06 562.374 675.936 567.766 664.527 574.1C650.773 581.736 639.406 590.794 634.441 602.609C629.296 614.855 630.312 629.11 633.953 643.945C636.943 656.128 641.722 668.767 646.376 681.075C647.389 683.754 648.396 686.418 649.377 689.057C654.878 703.854 659.566 717.885 660.075 729.857C660.33 735.833 659.541 741.268 657.311 746.016C655.083 750.758 651.404 754.846 645.823 758.112C632.573 765.865 618.675 764.613 604.304 758.659C589.914 752.698 575.127 742.053 560.163 731.123C559.625 730.731 559.088 730.338 558.55 729.945C544.136 719.412 529.569 708.767 515.126 702.053C500.136 695.084 485.196 692.31 470.637 698.343C456.404 704.242 447.629 715.403 441.682 729.292C435.74 743.167 432.6 759.81 429.653 776.731C429.415 778.098 429.178 779.466 428.941 780.836C426.241 796.441 423.529 812.122 418.785 826.038C413.627 841.167 406.087 854.147 393.614 862.635C374.527 875.623 349.596 878.101 324.804 873.754C300.016 869.408 275.433 858.249 257.103 844.056C237.255 828.688 228.364 805.316 220.999 780.369C219.73 776.071 218.507 771.727 217.28 767.369C211.398 746.481 205.434 725.305 194.016 707.684C189.018 699.973 181.654 693.539 173.487 687.666C168.299 683.935 162.756 680.409 157.277 676.924C154.144 674.931 151.032 672.952 148.02 670.955C131.369 659.919 117.703 648.315 118.599 630.453C119.211 618.26 125.363 607.733 134.18 598.018C142.27 589.105 152.56 580.921 162.787 572.786C163.713 572.05 164.639 571.313 165.563 570.576C176.663 561.726 187.448 552.859 194.863 543.15C202.29 533.425 206.371 522.807 203.987 510.477C201.394 497.071 192.9 487.536 181.488 479.968C170.089 472.408 155.724 466.775 141.313 461.19L140.351 460.817C126.235 455.348 112.134 449.885 100.656 442.657C88.9268 435.271 79.9976 426.078 76.5993 413.22C71.7606 394.913 82.8356 378.695 99.6855 364.941C116.514 351.205 138.934 340.072 156.379 331.954C164.912 327.984 174.865 327.431 185.386 328.381C193.554 329.117 202.017 330.753 210.385 332.371C212.8 332.838 215.207 333.303 217.597 333.745C228.24 335.712 238.542 337.212 247.541 336.224C256.565 335.233 264.314 331.736 269.788 323.698C279.388 309.603 282.693 292.78 283.085 274.843C283.431 259.062 281.521 242.37 279.633 225.868C279.376 223.62 279.119 221.377 278.869 219.139C276.776 200.448 275.112 182.197 277.176 165.889C279.238 149.596 285.017 135.284 297.78 124.43C302.304 120.584 306.918 118.515 311.615 117.85C316.316 117.185 321.133 117.92 326.067 119.733C335.954 123.366 346.235 131.295 356.842 140.772C361.622 145.043 366.458 149.617 371.345 154.241C371.874 154.742 372.404 155.243 372.935 155.744C378.362 160.875 383.851 166.031 389.386 170.854C400.448 180.492 411.734 188.835 423.138 192.99Z" stroke="#DC3635"/>
<mask id="mask0_1_32" style="mask-type:alpha" maskUnits="userSpaceOnUse" x="0" y="0" width="798" height="834">
<path d="M477.226 82.8612C526.879 97.3719 587.067 81.4354 632.318 103.337C677.593 125.249 725.742 161.496 727.334 203.911C729.352 257.685 602.703 304.486 641.513 348.348C700.404 414.905 704.985 360.621 753.58 432.333C786.658 481.147 754.168 512.807 727.334 564.03C699.48 617.201 844.442 675.687 782.405 704.802C708.796 739.346 645.054 678.617 566.274 704.802C489.141 730.439 505.966 781.951 436.93 819.631C384.238 848.39 299.509 826.884 249.113 795.586C194.353 761.578 200.203 695.843 162.53 649.217C135.422 615.666 56.6069 603.969 59.1044 564.03C62.5005 509.721 188.966 485.72 176.093 432.333C162.073 374.191 20.4548 382.757 1.58873 325.505C-11.8888 284.604 63.4601 253.411 111.256 235.572C158.654 217.881 236.905 261.358 266.344 226.689C318.532 165.23 234.2 55.7876 304.814 7.62633C355.091 -26.6637 415.231 64.7436 477.226 82.8612Z" fill="#DC3635"/>
</mask>
<g mask="url(#mask0_1_32)">
<g filter="url(#filter0_i_1_32)">
<path d="M434.811 129.783C471.055 142.989 514.99 128.486 548.021 148.418C581.07 168.36 616.216 201.349 617.378 239.95C618.851 288.889 526.403 331.482 554.733 371.401C597.721 431.973 727.465 379.787 762.937 445.052C787.083 489.477 665.991 493.448 646.404 540.066C626.072 588.457 702.862 669.31 657.577 695.807C603.846 727.245 539.836 612.237 482.331 636.068C426.027 659.401 455.79 766.019 405.397 800.311C366.934 826.485 305.086 810.199 268.299 781.715C228.327 750.764 232.597 687.653 205.098 645.219C185.31 614.685 127.778 604.039 129.601 567.692C132.08 518.265 224.394 496.422 214.998 447.835C204.764 394.92 101.389 402.717 87.6176 350.611C77.7796 313.388 132.781 284.999 167.669 268.764C202.268 252.664 259.388 292.232 280.877 260.68C318.971 204.746 257.413 105.144 308.958 61.3126C345.658 30.1055 389.557 113.295 434.811 129.783Z" fill="#DC3635"/>
</g>
<path d="M434.64 130.253C450.876 136.169 468.644 136.552 486.195 136.93C488.337 136.976 490.475 137.022 492.608 137.078C512.255 137.595 531.372 138.955 547.763 148.846C564.254 158.797 581.256 171.996 594.274 187.508C607.294 203.022 616.302 220.815 616.878 239.965C617.242 252.04 611.812 263.77 603.817 275.236C597.198 284.73 588.859 293.992 580.675 303.082C578.975 304.97 577.281 306.851 575.611 308.725C565.923 319.597 557.017 330.246 552.321 340.698C549.969 345.932 548.662 351.139 548.852 356.317C549.042 361.501 550.731 366.626 554.325 371.69C565.168 386.968 581.467 395.11 600.292 399.77C618.297 404.228 638.676 405.516 658.893 406.793C659.803 406.851 660.713 406.908 661.622 406.966C682.754 408.308 703.584 409.795 721.345 415.008C739.09 420.217 753.714 429.13 762.498 445.291C765.471 450.762 766.183 455.558 765.179 459.864C764.172 464.18 761.423 468.077 757.337 471.711C749.148 478.993 735.745 485.082 720.878 491.275C718.343 492.331 715.766 493.39 713.168 494.458C700.562 499.637 687.438 505.029 676.028 511.363C662.274 518.999 650.907 528.057 645.943 539.872C640.798 552.118 641.813 566.373 645.455 581.208C648.445 593.391 653.224 606.031 657.877 618.338C658.89 621.017 659.898 623.681 660.879 626.321C666.38 641.117 671.068 655.148 671.577 667.12C671.831 673.096 671.042 678.531 668.812 683.279C666.585 688.021 662.906 692.109 657.325 695.375C644.075 703.128 630.176 701.876 615.805 695.923C601.416 689.961 586.629 679.316 571.664 668.387C571.127 667.994 570.59 667.601 570.052 667.208C555.637 656.675 541.071 646.031 526.628 639.316C511.637 632.347 496.698 629.573 482.139 635.606C467.905 641.505 459.131 652.666 453.183 666.555C447.242 680.43 444.101 697.073 441.155 713.994C440.916 715.361 440.68 716.729 440.443 718.099C437.743 733.704 435.03 749.385 430.286 763.301C425.128 778.43 417.589 791.41 405.115 799.898C386.029 812.886 361.098 815.364 336.306 811.017C311.518 806.671 286.934 795.512 268.605 781.319C248.757 765.951 239.866 742.58 232.501 717.632C231.232 713.334 230.008 708.99 228.781 704.632C222.899 683.745 216.936 662.568 205.517 644.947C200.52 637.236 193.155 630.803 184.989 624.929C179.801 621.198 174.258 617.672 168.778 614.187C165.646 612.194 162.534 610.215 159.522 608.218C142.871 597.182 129.205 585.578 130.101 567.717C130.712 555.523 136.864 544.996 145.682 535.281C153.772 526.368 164.062 518.184 174.288 510.05C175.215 509.313 176.141 508.576 177.065 507.84C188.164 498.989 198.949 490.123 206.365 480.413C213.792 470.688 217.873 460.071 215.488 447.74C212.896 434.334 204.401 424.799 192.99 417.231C181.591 409.671 167.226 404.038 152.815 398.453L151.853 398.081C137.737 392.612 123.636 387.148 112.158 379.92C100.429 372.534 91.4993 363.341 88.101 350.483C83.2623 332.176 94.3373 315.958 111.187 302.204C128.015 288.469 150.436 277.335 167.88 269.217C176.413 265.247 186.367 264.695 196.888 265.644C205.056 266.381 213.518 268.017 221.886 269.634C224.301 270.101 226.708 270.566 229.098 271.008C239.742 272.975 250.044 274.475 259.042 273.487C268.066 272.496 275.816 268.999 281.29 260.961C290.89 246.866 294.195 230.043 294.587 212.106C294.932 196.325 293.023 179.633 291.135 163.131C290.878 160.884 290.621 158.64 290.37 156.402C288.278 137.712 286.614 119.46 288.678 103.152C290.74 86.8594 296.518 72.5471 309.282 61.6935C313.806 57.8467 318.42 55.7786 323.117 55.1136C327.817 54.4481 332.635 55.1833 337.569 56.9963C347.456 60.6287 357.737 68.5583 368.344 78.0349C373.124 82.3059 377.959 86.8803 382.847 91.5041C383.376 92.0048 383.906 92.5061 384.436 93.0076C389.863 98.1383 395.352 103.295 400.887 108.117C411.949 117.755 423.236 126.098 434.64 130.253Z" stroke="#DC3635"/>
</g>
<defs>
<filter id="filter0_i_1_32" x="86.4579" y="54.3719" width="684.649" height="763.116" filterUnits="userSpaceOnUse" color-interpolation-filters="sRGB">
<feFlood flood-opacity="0" result="BackgroundImageFix"/>
<feBlend mode="normal" in="SourceGraphic" in2="BackgroundImageFix" result="shape"/>
<feColorMatrix in="SourceAlpha" type="matrix" values="0 0 0 0 0 0 0 0 0 0 0 0 0 0 0 0 0 0 127 0" result="hardAlpha"/>
<feOffset dx="5" dy="4"/>
<feGaussianBlur stdDeviation="2.5"/>
<feComposite in2="hardAlpha" operator="arithmetic" k2="-1" k3="1"/>
<feColorMatrix type="matrix" values="0 0 0 0 0 0 0 0 0 0 0 0 0 0 0 0 0 0 0.25 0"/>
<feBlend mode="normal" in2="shape" result="effect1_innerShadow_1_32"/>
</filter>
</defs>
</svg>
